# xmcd
#
# Track frame offsets: 
#        150
#        16261
#        31704
#        51066
#        67950
#        85221
#        103474
#        121203
#        138323
#        154951
#        174390
#        193545
#        210782
#        217479
#        223801
#
# Disc length: 3103 seconds
#
# Revision: 0
# Processed by: cddbd v1.5.2PL0 Copyright (c) Steve Scherf et al.
# Submitted via: ExactAudioCopyFreeDBPlugin 1.0
#
DISCID=d50c1d0f
DTITLE=Joe - The Good, The Bad, The Sexy (Deluxe Edition)
DYEAR=2010
DGENRE=R&B
TTITLE0=Losing
TTITLE1=Time of Your Life
TTITLE2=Almost There
TTITLE3=Circles
TTITLE4=Pull My Hair
TTITLE5=Dear Joe
TTITLE6=Slow Kisses
TTITLE7=Lose Control
TTITLE8=Tonight
TTITLE9=Impossible
TTITLE10=Drink Up
TTITLE11=Shelter
TTITLE12=All That I Am
TTITLE13=I Wanna Know
TTITLE14=All The Things
EXTD=
EXTT0=
EXTT1=
EXTT2=
EXTT3=
EXTT4=
EXTT5=
EXTT6=
EXTT7=
EXTT8=
EXTT9=
EXTT10=
EXTT11=
EXTT12=
EXTT13=
EXTT14=
PLAYORDER=
